<?xml version="1.0" standalone="no"?>
<!DOCTYPE svg PUBLIC "-//W3C//DTD SVG 20010904//EN"
 "http://www.w3.org/TR/2001/REC-SVG-20010904/DTD/svg10.dtd">
<svg version="1.0" xmlns="http://www.w3.org/2000/svg"
 width="112.000000pt" height="112.000000pt" viewBox="0 0 112.000000 112.000000"
 preserveAspectRatio="xMidYMid meet">
<metadata>
Created by potrace 1.14, written by Peter Selinger 2001-2017
</metadata>
<g transform="translate(0.000000,112.000000) scale(0.100000,-0.100000)"
fill="#000000" stroke="none">
<path d="M90 1113 c0 -27 55 -135 87 -172 50 -57 51 -61 8 -61 -25 0 -43 -8
-62 -26 -25 -25 -25 -29 -21 -113 3 -48 11 -97 17 -109 17 -31 0 -27 -34 8
l-28 30 -20 -43 c-22 -49 -31 -87 -20 -87 5 0 25 -16 45 -35 20 -19 39 -35 42
-35 3 0 15 18 26 41 l21 40 58 -58 59 -58 -37 -6 c-20 -4 -61 -10 -91 -13 -44
-5 -65 -15 -98 -43 l-42 -35 0 -116 c0 -105 2 -120 27 -169 l27 -53 533 0 533
0 0 560 0 560 -340 0 c-298 0 -339 -2 -334 -15 8 -19 -7 -19 -32 0 -15 11 -53
14 -171 15 -84 0 -153 -3 -153 -7z"/>
</g>
</svg>
